<svg width="37" height="35" viewBox="0 0 37 35" fill="none" xmlns="http://www.w3.org/2000/svg">
<g clip-path="url(#clip0_14_2130)">
<rect opacity="0.1" y="0.0864258" width="36" height="35" rx="17.5" fill="white"/>
<path d="M25.1422 17.8655C25.1422 17.4327 25.0881 17.1081 25.034 16.7564H18.65V19.0558H22.4371C22.3019 20.0566 21.301 21.9502 18.65 21.9502C16.3507 21.9502 14.4842 20.0566 14.4842 17.7032C14.4842 13.9432 18.9205 12.2119 21.301 14.5112L23.1404 12.7529C21.9773 11.6709 20.4354 10.9946 18.65 10.9946C14.917 10.9946 11.9414 13.9973 11.9414 17.7032C11.9414 21.4362 14.917 24.4118 18.65 24.4118C22.5183 24.4118 25.1422 21.7067 25.1422 17.8655Z" fill="white"/>
</g>
<defs>
<clipPath id="clip0_14_2130">
<rect width="36.3563" height="34.625" fill="white" transform="translate(0 0.0864258)"/>
</clipPath>
</defs>
</svg>
