<svg width="37" height="35" viewBox="0 0 37 35" fill="none" xmlns="http://www.w3.org/2000/svg">
<g clip-path="url(#clip0_14_2133)">
<rect opacity="0.1" x="0.549988" y="0.0864258" width="36" height="35" rx="17.5" fill="white"/>
<path d="M24.5833 14.8899C25.1243 14.4842 25.6112 13.9973 25.9899 13.4292C25.503 13.6456 24.9349 13.8079 24.3669 13.862C24.962 13.5104 25.3948 12.9693 25.6112 12.2931C25.0702 12.6177 24.448 12.8611 23.8259 12.9964C23.2849 12.4283 22.5545 12.1037 21.743 12.1037C20.174 12.1037 18.9026 13.3751 18.9026 14.944C18.9026 15.1604 18.9297 15.3769 18.9838 15.5933C16.6304 15.458 14.5204 14.3219 13.1138 12.6177C12.8703 13.0234 12.735 13.5104 12.735 14.0514C12.735 15.0252 13.222 15.8908 14.0064 16.4048C13.5466 16.3777 13.0867 16.2695 12.708 16.0531V16.0802C12.708 17.4598 13.6818 18.5959 14.9803 18.8664C14.7639 18.9205 14.4933 18.9746 14.2499 18.9746C14.0605 18.9746 13.8982 18.9476 13.7089 18.9205C14.0605 20.0566 15.1155 20.8682 16.3599 20.8952C15.386 21.6526 14.1687 22.1125 12.8432 22.1125C12.5998 22.1125 12.3834 22.0854 12.167 22.0584C13.4113 22.8699 14.8991 23.3298 16.5222 23.3298C21.743 23.3298 24.5833 19.0287 24.5833 15.2687C24.5833 15.1334 24.5833 15.0252 24.5833 14.8899Z" fill="white"/>
</g>
<defs>
<clipPath id="clip0_14_2133">
<rect width="36.3563" height="34.625" fill="white" transform="translate(0.549988 0.0864258)"/>
</clipPath>
</defs>
</svg>
