<svg width="36" height="35" viewBox="0 0 36 35" fill="none" xmlns="http://www.w3.org/2000/svg">
<g clip-path="url(#clip0_14_2136)">
<rect opacity="0.1" x="0.965637" y="0.0864258" width="35" height="35" rx="17.5" fill="white"/>
<path d="M19.0073 14.5924C17.276 14.5924 15.8964 15.999 15.8964 17.7032C15.8964 19.4345 17.276 20.8141 19.0073 20.8141C20.7115 20.8141 22.1181 19.4345 22.1181 17.7032C22.1181 15.999 20.7115 14.5924 19.0073 14.5924ZM19.0073 19.732C17.8982 19.732 16.9785 18.8394 16.9785 17.7032C16.9785 16.5941 17.8711 15.7015 19.0073 15.7015C20.1163 15.7015 21.009 16.5941 21.009 17.7032C21.009 18.8394 20.1163 19.732 19.0073 19.732ZM22.9567 14.4842C22.9567 14.0784 22.6321 13.7538 22.2263 13.7538C21.8205 13.7538 21.4959 14.0784 21.4959 14.4842C21.4959 14.8899 21.8205 15.2146 22.2263 15.2146C22.6321 15.2146 22.9567 14.8899 22.9567 14.4842ZM25.0125 15.2146C24.9584 14.2407 24.742 13.3751 24.0387 12.6718C23.3354 11.9685 22.4698 11.7521 21.4959 11.6979C20.4951 11.6438 17.4924 11.6438 16.4915 11.6979C15.5177 11.7521 14.6791 11.9685 13.9488 12.6718C13.2454 13.3751 13.029 14.2407 12.9749 15.2146C12.9208 16.2154 12.9208 19.2181 12.9749 20.2189C13.029 21.1928 13.2454 22.0313 13.9488 22.7617C14.6791 23.465 15.5177 23.6814 16.4915 23.7355C17.4924 23.7896 20.4951 23.7896 21.4959 23.7355C22.4698 23.6814 23.3354 23.465 24.0387 22.7617C24.742 22.0313 24.9584 21.1928 25.0125 20.2189C25.0666 19.2181 25.0666 16.2154 25.0125 15.2146ZM23.7141 21.2739C23.5247 21.8149 23.0919 22.2207 22.578 22.4371C21.7664 22.7617 19.8729 22.6806 19.0073 22.6806C18.1146 22.6806 16.221 22.7617 15.4366 22.4371C14.8955 22.2207 14.4898 21.8149 14.2734 21.2739C13.9488 20.4895 14.0299 18.5959 14.0299 17.7032C14.0299 16.8376 13.9488 14.944 14.2734 14.1325C14.4898 13.6186 14.8955 13.2128 15.4366 12.9964C16.221 12.6718 18.1146 12.7529 19.0073 12.7529C19.8729 12.7529 21.7664 12.6718 22.578 12.9964C23.0919 13.1857 23.4977 13.6186 23.7141 14.1325C24.0387 14.944 23.9576 16.8376 23.9576 17.7032C23.9576 18.5959 24.0387 20.4895 23.7141 21.2739Z" fill="white"/>
</g>
<defs>
<clipPath id="clip0_14_2136">
<rect width="34.625" height="34.625" fill="white" transform="translate(0.965637 0.0864258)"/>
</clipPath>
</defs>
</svg>
