<svg width="36" height="35" viewBox="0 0 36 35" fill="none" xmlns="http://www.w3.org/2000/svg">
<g clip-path="url(#clip0_14_2139)">
<rect opacity="0.1" x="0.515625" y="0.0864258" width="35" height="35" rx="17.5" fill="white"/>
<path d="M23.7512 11.6438H13.3366C12.8768 11.6438 12.4981 12.0496 12.4981 12.5365V22.897C12.4981 23.3839 12.8768 23.7626 13.3366 23.7626H23.7512C24.211 23.7626 24.6168 23.3839 24.6168 22.897V12.5365C24.6168 12.0496 24.211 11.6438 23.7512 11.6438ZM16.1499 22.0313H14.3646V16.2695H16.1499V22.0313ZM15.2572 15.458C14.6621 15.458 14.2023 14.9981 14.2023 14.4301C14.2023 13.862 14.6621 13.3751 15.2572 13.3751C15.8253 13.3751 16.2852 13.862 16.2852 14.4301C16.2852 14.9981 15.8253 15.458 15.2572 15.458ZM22.8856 22.0313H21.0732V19.2181C21.0732 18.5688 21.0732 17.7032 20.1534 17.7032C19.2067 17.7032 19.0714 18.4336 19.0714 19.191V22.0313H17.286V16.2695H18.9902V17.054H19.0173C19.2608 16.5941 19.8559 16.1072 20.7215 16.1072C22.5339 16.1072 22.8856 17.3245 22.8856 18.8664V22.0313Z" fill="white"/>
</g>
<defs>
<clipPath id="clip0_14_2139">
<rect width="34.625" height="34.625" fill="white" transform="translate(0.515625 0.0864258)"/>
</clipPath>
</defs>
</svg>
